<svg width="113" height="32" viewBox="0 0 113 32" fill="none" xmlns="http://www.w3.org/2000/svg">
<path d="M43.0173 21.4606L51.7757 10.7425H43.356V7.25849H56.542V10.2344L48.1949 20.9525H56.6387V24.4365H43.0173V21.4606ZM57.8991 20.638C57.8991 19.7993 58.133 19.0654 58.6008 18.4363C59.0685 17.8073 59.7137 17.3153 60.5363 16.9605C61.3589 16.5895 62.3025 16.404 63.3671 16.404C63.8832 16.404 64.3913 16.4524 64.8913 16.5491C65.3913 16.6298 65.8268 16.7508 66.1978 16.9121V16.3556C66.1978 15.662 65.9881 15.1297 65.5687 14.7588C65.1494 14.3878 64.5123 14.2023 63.6574 14.2023C62.9477 14.2023 62.2783 14.3233 61.6493 14.5652C61.0363 14.8071 60.3831 15.1539 59.6895 15.6056L58.5282 13.1377C59.3669 12.5893 60.2379 12.178 61.1412 11.9038C62.0606 11.6296 63.0283 11.4925 64.0445 11.4925C65.9478 11.4925 67.4237 11.9522 68.4721 12.8716C69.5366 13.7749 70.0689 15.0894 70.0689 16.8153V20.1299C70.0689 20.517 70.1254 20.7912 70.2383 20.9525C70.3673 21.0977 70.5851 21.1864 70.8915 21.2187V24.4365C70.5689 24.501 70.2625 24.5494 69.9721 24.5817C69.6979 24.6139 69.456 24.6301 69.2463 24.6301C68.5205 24.6301 67.964 24.4849 67.5769 24.1946C67.2059 23.9042 66.972 23.5091 66.8752 23.0091L66.8027 22.4526C66.2381 23.1784 65.5607 23.7349 64.7703 24.122C63.9961 24.493 63.1816 24.6785 62.3267 24.6785C61.488 24.6785 60.7299 24.501 60.0524 24.1462C59.3911 23.7913 58.8669 23.3075 58.4798 22.6945C58.0927 22.0816 57.8991 21.3961 57.8991 20.638ZM65.5929 21.1219C65.7704 20.9767 65.9155 20.8154 66.0284 20.638C66.1413 20.4606 66.1978 20.2912 66.1978 20.1299V18.9928C65.8752 18.8637 65.5123 18.767 65.1091 18.7024C64.7219 18.6218 64.359 18.5815 64.0203 18.5815C63.3106 18.5815 62.7219 18.7428 62.2541 19.0654C61.7864 19.3718 61.5525 19.7831 61.5525 20.2993C61.5525 20.5896 61.6331 20.8558 61.7944 21.0977C61.9557 21.3396 62.1735 21.5332 62.4477 21.6784C62.738 21.8235 63.0767 21.8961 63.4638 21.8961C63.8509 21.8961 64.2381 21.8235 64.6252 21.6784C65.0123 21.5332 65.3349 21.3477 65.5929 21.1219ZM80.9307 15.0491C79.9952 15.0491 79.1484 15.2023 78.3903 15.5088C77.6322 15.7991 77.0838 16.2346 76.7451 16.8153V24.4365H72.8739V11.7345H76.4305V14.2991C76.866 13.4442 77.4306 12.7748 78.1241 12.2909C78.8177 11.807 79.5435 11.557 80.3016 11.5409C80.4791 11.5409 80.6081 11.5409 80.6887 11.5409C80.7855 11.5409 80.8662 11.549 80.9307 11.5651V15.0491ZM90.6179 15.0491C89.6824 15.0491 88.8356 15.2023 88.0775 15.5088C87.3194 15.7991 86.771 16.2346 86.4323 16.8153V24.4365H82.5612V11.7345H86.1177V14.2991C86.5532 13.4442 87.1178 12.7748 87.8113 12.2909C88.5049 11.807 89.2308 11.557 89.9888 11.5409C90.1663 11.5409 90.2953 11.5409 90.376 11.5409C90.4727 11.5409 90.5534 11.549 90.6179 11.5651V15.0491ZM92.2484 24.4365V11.7345H96.1195V24.4365H92.2484ZM92.2484 10.2828V6.7746H96.1195V10.2828H92.2484ZM111.012 24.4365H107.141V17.2992C107.141 16.4604 106.979 15.8556 106.657 15.4846C106.35 15.0975 105.939 14.9039 105.423 14.9039C105.068 14.9039 104.705 15.0007 104.334 15.1943C103.963 15.3878 103.625 15.654 103.318 15.9927C103.028 16.3314 102.802 16.7185 102.641 17.154V24.4365H98.7695V11.7345H102.254V13.8636C102.576 13.3635 102.979 12.9361 103.463 12.5813C103.947 12.2264 104.504 11.9603 105.133 11.7828C105.762 11.5893 106.447 11.4925 107.189 11.4925C108.012 11.4925 108.673 11.6457 109.173 11.9522C109.689 12.2425 110.076 12.6297 110.334 13.1135C110.609 13.5974 110.786 14.1216 110.867 14.6862C110.964 15.2346 111.012 15.7749 111.012 16.3072V24.4365Z" fill="#150E06"/>
<path d="M3.51069 27.9837C0.784168 25.2949 -0.494954 21.2055 0.273807 17.4473C1.03429 13.2264 4.31256 9.54724 8.45246 8.38766C10.4792 10.4438 12.5317 12.4724 14.5676 14.5175C14.9869 14.9221 15.3713 15.3626 15.8237 15.7313C14.3809 15.7461 12.9354 15.6927 11.4944 15.7488C9.50353 15.8748 7.81704 17.7526 7.92831 19.7489C7.90992 21.7637 9.71687 23.5845 11.7326 23.5725C15.6978 23.5817 19.662 23.5716 23.6254 23.579C26.2305 26.1869 28.8311 28.8003 31.45 31.3953C31.0454 31.4725 30.6343 31.4514 30.226 31.4477C24.1118 31.4486 17.9994 31.4477 11.8871 31.4486C8.78719 31.4569 5.69008 30.1989 3.51069 27.9837Z" fill="#7C4EE4"/>
<path d="M7.72439 7.69211C5.14683 5.13203 2.60882 2.52965 -1.00827e-06 -9.15527e-05C6.10227 0.0238168 12.2036 0.00358528 18.3059 0.0109417C19.3303 0.0247356 20.3648 -0.0469884 21.3772 0.145202C23.9723 0.502913 26.4303 1.77284 28.2262 3.67819C30.2226 5.74814 31.3904 8.57858 31.4815 11.4495C31.5495 13.8155 30.8801 16.2 29.5991 18.1899C28.0919 20.5045 25.7627 22.3344 23.083 23.0664C21.0821 21.0332 19.0498 19.0286 17.036 17.0064C16.6304 16.6303 16.2902 16.1797 15.8249 15.8689C15.904 15.8036 15.9895 15.7485 16.0833 15.7043C17.3624 15.731 18.6443 15.7273 19.9243 15.7108C21.9106 15.6556 23.6541 13.8404 23.6146 11.8513C23.6725 10.2356 22.5791 8.68341 21.072 8.12891C20.4972 7.88062 19.8627 7.87695 19.2475 7.88246C15.5343 7.88614 11.822 7.88154 8.10969 7.88522C7.95428 7.88614 7.82554 7.82177 7.72439 7.69211Z" fill="#7C4EE4"/>
</svg>
